<?xml version="1.0" encoding="UTF-8"?>
<svg id="Layer_1" xmlns="http://www.w3.org/2000/svg" version="1.1" viewBox="0 0 37.51 35.62">
  <!-- Generator: Adobe Illustrator 30.7.0, SVG Export Plug-In . SVG Version: 2.1.4 Build 114)  -->
  <defs>
    <style>
      .st0 {
        fill: #154474;
        fill-rule: evenodd;
      }

      .st1 {
        stroke-miterlimit: 10;
        stroke-width: .54px;
      }

      .st1, .st2 {
        fill: none;
        stroke: #154474;
      }

      .st2 {
        stroke-linecap: round;
        stroke-linejoin: round;
        stroke-width: .7px;
      }
    </style>
  </defs>
  <g>
    <path class="st1" d="M20.02,24.5c.06-3.94-3.27-7.24-7.36-7.3-4.25-.06-7.72,3.12-7.77,7.11-.05,3.94,3.31,7.19,7.49,7.23,4.12.04,7.58-3.15,7.64-7.04ZM12.84,30.18c0-.39,0-.68,0-.97,0-.87,0-1.75,0-2.62,0-.51,0-.51.54-.7.99.96,1.98,1.91,3.03,2.92-.94.8-2.11,1.23-3.56,1.37ZM17.01,28.14c-.99-.94-1.98-1.88-2.97-2.82.04-.32.09-.57.49-.56,1.28.01,2.56.01,3.84.02.04,0,.08.03.16.06-.07,1.24-.61,2.45-1.52,3.31ZM18.54,23.99h-4.31c-.06-.14-.13-.31-.2-.47,1.05-1,2.03-1.92,3.07-2.9.86.96,1.35,2.06,1.45,3.36ZM12.86,18.7c1.02-.15,2.59.42,3.57,1.31-.07.09-.12.21-.21.29-.81.77-1.64,1.52-2.44,2.3-.28.28-.54.35-.92.05v-3.95ZM12.49,23.66c.42.01.74.35.72.76-.02.41-.37.7-.81.67-.4-.03-.71-.34-.7-.71,0-.39.38-.73.78-.71ZM12.03,18.6v4.11c-.15.07-.32.15-.43.21-1.06-.96-2.09-1.9-3.18-2.9,1.08-.85,2.22-1.36,3.62-1.41ZM7.82,20.58c1.07.95,2.03,1.95,3.04,2.87-.14.56-.14.57-.61.57-1.14,0-2.28,0-3.43,0-.13,0-.26-.03-.45-.05.05-1.29.56-2.35,1.45-3.39ZM7.8,28.14c-.89-.95-1.34-2.05-1.46-3.34h4.34c.22.24.27.47-.03.74-.87.8-1.72,1.62-2.58,2.43-.06.06-.14.09-.26.17ZM12.03,30.15c-1.38-.08-2.52-.57-3.65-1.42,1.1-.97,2.11-1.87,3.13-2.77-.03-.04-.05-.09-.08-.13.2.08.4.16.6.24v4.09Z"/>
    <path class="st1" d="M31.88,26.96c-.28.07-.56.16-.84.25-.59.18-1.19.35-1.81.54-.1-.2-.18-.35-.25-.5-.55-1.35-1.1-2.71-1.64-4.06-.31-.77-.88-1.16-1.75-1.13-.31,0-.62,0-.98,0,0-.36,0-.63,0-.91,0-1.43.01-2.86,0-4.29-.02-1.14-.61-1.74-1.78-1.84-.09,0-.17-.03-.24-.05-.29-.7-.32-.73-1.09-.73-1.3,0-2.61,0-3.91,0-.83,0-1.66,0-2.5,0-.43,0-.74.12-.85.56-.02.08-.09.14-.11.18h-1.22c0-.28,0-.51,0-.74,0-1.6,0-3.2,0-4.8,0-.6-.19-1.12-.74-1.42-.49-.26-1.04-.42-1.57-.63-.04-.01-.09,0-.13,0-.97,0-1.93,0-2.9,0-.55,0-.64.13-.64.74,0,.61.08.71.66.72.94,0,1.89,0,2.83-.02.15,0,.35-.01.44-.1.24-.22.49-.26.72-.07.19.16.33.39.43.61.07.17.04.38.04.57,0,2.03,0,4.05,0,6.08,0,.25,0,.03,0,.3h.81c.03-.28.05-.06.08-.35.21-.01.41-.03.61-.03,2.97,0,5.94,0,8.9,0,.18,0,.36,0,.54.03.33.07.61.26.66.57.1.58.09,1.17,0,1.8-2.09,0-3.02,0-5.04,0-.02,0-.04.02-.05.03-.01.02-.02.04-.04.1,1.21.91,2.09,2.08,2.66,3.51h2.47v2.11c-1.07.06-1.66-.03-2.66.05v.83h2.68v1.77c-1.68.74-2.3,1.65-2.03,2.94.23,1.12,1.23,1.92,2.43,1.95,1.18.03,2.25-.73,2.54-1.83.14-.53.1-1.06-.13-1.57-.36-.77-1.01-1.23-1.84-1.45v-3.72c1.45-.2,1.59-.12,2.08,1.07.6,1.47,1.2,2.94,1.8,4.41.19.46.27.52.68.4,1.01-.29,2.02-.6,3.02-.91.39-.12.47-.31.35-.63-.12-.32-.32-.42-.69-.34ZM25.57,29.21c-.06.66-.62,1.19-1.32,1.24-.7.05-1.34-.4-1.5-1.04-.17-.7.13-1.22.96-1.54,0,.47,0,.87,0,1.28,0,.29.16.44.45.44.3,0,.46-.15.46-.44,0-.4,0-.81,0-1.22.65.16,1.01.66.96,1.28Z"/>
  </g>
  <g>
    <path class="st0" d="M23.66,6.2h.48v1.26l1.47-.53v.39l-1.47.53v.21l.8-.28.68-.25v.37s0,.02-.01.02l-1.42.51s-.03.02-.04.02v2.07h0,0c.37-.03.7-.17.99-.41.32-.26.53-.58.63-.96.05-.18.07-.35.07-.53h.49c0,.4-.1.77-.29,1.12-.14.27-.32.5-.55.7-.22.19-.46.34-.73.44-.35.14-.72.18-1.09.14v-2.4s-.03.01-.08.03l-.84.3v-.39l.92-.33v-.21s-.11.05-.18.07-.12.05-.14.05l-.48.18s-.01,0-.04.01c-.03,0-.05.01-.07.02v-.39l.92-.33v-1.44Z"/>
    <path class="st2" d="M26.52,11.8c-.53.31-1.15.48-1.81.48-2.01,0-3.64-1.63-3.64-3.64s1.63-3.64,3.64-3.64c1.85,0,3.38,1.67,3.61,3.46h-1.27l2.7,2.9,2.57-2.9h-1.42c-.18-3.26-2.88-6.01-6.18-6.01s-6.1,2.68-6.19,6.02"/>
  </g>
</svg>