<?xml version="1.0" encoding="UTF-8"?>
<svg id="Layer_1" data-name="Layer 1" xmlns="http://www.w3.org/2000/svg" viewBox="0 0 58.99 55.27">
  <defs>
    <style>
      .cls-1 {
        fill: #144474;
      }
    </style>
  </defs>
  <g>
    <path class="cls-1" d="M11.34,35.4l6.46-5.7c2.89-2.62,3.94-4.03,3.94-5.94,0-2.22-1.76-3.62-3.81-3.62s-3.32.95-4.7,2.76c-.19.22-.43.38-.78.38-.54,0-.97-.43-.97-.97,0-.22.08-.41.22-.59,1.59-2.16,3.27-3.49,6.4-3.49,3.4,0,5.86,2.27,5.86,5.35v.05c0,2.76-1.46,4.46-4.78,7.35l-5.05,4.48h9.16c.54,0,1,.43,1,.97s-.46.97-1,.97h-11.37c-.62,0-1.08-.38-1.08-1,0-.38.16-.7.51-1Z"/>
    <path class="cls-1" d="M36.79,32.92h-9.4c-.62,0-1.08-.41-1.08-1.03,0-.41.11-.68.41-1.03l9.83-12c.32-.41.62-.65,1.19-.65.65,0,1.13.49,1.13,1.11v11.81h2.13c.51,0,.92.41.92.92s-.41.86-.92.86h-2.13v3.59c0,.57-.43,1.03-1.05,1.03-.57,0-1.03-.46-1.03-1.03v-3.59ZM36.79,31.13v-9.75l-7.94,9.75h7.94Z"/>
  </g>
  <path class="cls-1" d="M27.64,55.27c-3.73,0-7.35-.73-10.76-2.17-3.29-1.39-6.25-3.38-8.78-5.92-2.54-2.54-4.53-5.49-5.92-8.78-1.44-3.41-2.17-7.03-2.17-10.76s.73-7.35,2.17-10.76c1.39-3.29,3.38-6.25,5.92-8.78,2.54-2.54,5.49-4.53,8.78-5.92,3.41-1.44,7.03-2.17,10.76-2.17s7.35.73,10.76,2.17c3.29,1.39,6.25,3.38,8.78,5.92,2.54,2.54,4.53,5.49,5.92,8.78,1.44,3.41,2.17,7.03,2.17,10.76,0,.29-.18.55-.45.65-.27.1-.58.02-.76-.2l-6.11-7.12c-.25-.29-.21-.73.07-.97.29-.25.73-.21.97.07l4.82,5.63c-.21-2.86-.88-5.63-1.99-8.27-1.32-3.13-3.22-5.93-5.63-8.35-2.41-2.41-5.22-4.3-8.35-5.63-3.24-1.37-6.67-2.06-10.22-2.06s-6.98.69-10.22,2.06c-3.13,1.32-5.93,3.22-8.35,5.63-2.41,2.41-4.3,5.22-5.63,8.35-1.37,3.24-2.06,6.67-2.06,10.22s.69,6.98,2.06,10.22c1.32,3.13,3.22,5.93,5.63,8.35,2.41,2.41,5.22,4.3,8.35,5.63,3.24,1.37,6.67,2.06,10.22,2.06.38,0,.69.31.69.69s-.31.69-.69.69Z"/>
  <path class="cls-1" d="M54.58,28.33c-.09,0-.18-.02-.27-.06-.35-.15-.51-.56-.36-.91l3.71-8.62c.15-.35.56-.51.91-.36.35.15.51.56.36.91l-3.71,8.62c-.11.26-.37.42-.63.42Z"/>
</svg>