<?xml version="1.0" encoding="utf-8"?>
<!-- Generator: Adobe Illustrator 28.1.0, SVG Export Plug-In . SVG Version: 6.00 Build 0)  -->
<svg version="1.1" id="katman_1" xmlns="http://www.w3.org/2000/svg" xmlns:xlink="http://www.w3.org/1999/xlink" x="0px" y="0px"
	 viewBox="0 0 96 78" style="enable-background:new 0 0 96 78;" xml:space="preserve">
<style type="text/css">
	.st0{fill:#F1F5FF;}
	.st1{fill:#F9F9FF;}
	.st2{fill:#FBFBFF;}
	.st3{fill:#FCFCFC;}
	.st4{fill:#E7EDFE;}
	.st5{fill:#E1ECFD;}
	.st6{fill:#E8EFFE;}
	.st7{fill:#F6F7FD;}
	.st8{fill:#FAFAFE;}
	.st9{fill:#FBFBFE;}
	.st10{fill:#FAFBFF;}
	.st11{fill:#FAFBFE;}
	.st12{fill:#F6DFE5;}
	.st13{fill:#F5CAD3;}
	.st14{fill:#F8DCE3;}
	.st15{fill:#FCEDF2;}
	.st16{fill:#EFF2FD;}
	.st17{fill:#F0F6FD;}
	.st18{fill:#ECF4FF;}
	.st19{fill:#EEF6FE;}
	.st20{fill:#FFFFFF;}
	.st21{fill:#154474;}
	.st22{fill:#F1F4FD;}
	.st23{fill:#F1F7FE;}
	.st24{fill:#D4DFFE;}
	.st25{fill:#C3D4FE;}
	.st26{fill:#798DB5;}
	.st27{fill:#DFE5FE;}
	.st28{fill:#516687;}
	.st29{fill:#076817;}
	.st30{fill:#910304;}
	.st31{fill:#3B3B3B;}
	.st32{fill:#EAF2FC;}
	.st33{fill:none;stroke:#154474;stroke-miterlimit:10;}
</style>
<g>
	<path class="st31" d="M80,15c-0.6,0.8-1.2,1.6-1.8,2.4c-6.6,8-13.2,16-19.8,24c-0.2,0.2-0.3,0.6-0.3,0.9c0,5.6-0.1,11.3,0,16.9
		c0,1.2-0.4,1.9-1.5,2.4c-3.8,1.8-7.5,3.7-11.3,5.6c-0.4,0.2-1,0.3-1.4,0.3c-0.8-0.1-1.3-0.7-1.5-1.5c0-0.3,0-0.6,0-0.9
		c0-7.6,0-15.2,0-22.7c0-0.5-0.1-0.8-0.4-1.1c-6.9-8.4-13.9-16.8-20.8-25.2c-0.5-0.7-0.8-1.4-0.4-2.2c0.4-0.8,1.1-1,2-1
		c18.4,0,36.7,0,55.1,0c1.1,0,1.8,0.4,2.2,1.4C80,14.5,80,14.8,80,15z M46.1,62.9c0.3-0.1,0.4-0.2,0.6-0.3c2.5-1.2,4.9-2.4,7.4-3.6
		c0.4-0.2,0.5-0.4,0.5-0.8c0-5.5,0-10.9,0-16.4c0-0.8,0.2-1.5,0.8-2.2C61.5,32,67.8,24.5,74,16.9c0.1-0.1,0.2-0.3,0.3-0.5
		c-16.1,0-32,0-48,0c0.1,0.2,0.2,0.3,0.3,0.5c6.2,7.5,12.3,15,18.5,22.5c0.6,0.8,0.9,1.6,0.9,2.6c0,6.7,0,13.4,0,20.1
		C46.1,62.3,46.1,62.5,46.1,62.9z"/>
</g>
</svg>
